<?xml version="1.0" encoding="utf-8"?>
<!-- Generator: Adobe Illustrator 19.0.0, SVG Export Plug-In . SVG Version: 6.00 Build 0)  -->
<svg version="1.1" id="Layer_1" xmlns="http://www.w3.org/2000/svg" xmlns:xlink="http://www.w3.org/1999/xlink" x="0px" y="0px"
	 viewBox="0 0 30 30" style="enable-background:new 0 0 30 30;" xml:space="preserve">
   <path d="m21.2,15.4c-0.8,-1.5 -1.6,-2.9 -2.4,-4.4c0,-0.1 -0.1,-0.1 -0.1,-0.2c-0.2,-0.1 -0.3,-0.1 -0.5,-0.1c-0.1,0 -0.2,0.1 -0.3,0.2c-0.1,0.2 -0.2,0.4 -0.4,0.6c-0.9,1.7 -1.7,3.2 -2.6,4.7c-0.1,0.2 -0.1,0.4 -0.1,0.6c0,0.2 0.2,0.3 0.4,0.3c0.1,0 6,0 6.1,0c0.2,0 0.3,-0.1 0.4,-0.2c0.1,-0.2 0.1,-0.4 0,-0.6c-0.2,-0.3 -0.3,-0.6 -0.5,-0.9zm-3.4,-2.6c0,-0.2 0.1,-0.3 0.3,-0.3c0.2,-0.1 0.3,-0.1 0.5,0c0.1,0.1 0.2,0.2 0.2,0.4c0,0.1 0,0.3 0,0.4c0,0.2 -0.1,0.4 -0.1,0.6c0,0.2 -0.1,0.4 -0.1,0.6c0,0.1 0,0.2 -0.1,0.4c0,0 0,0 0,0c0,0 -0.1,0 -0.1,0c-0.2,0 -0.2,0 -0.3,0c0,0 -0.1,0 -0.1,0c0,-0.2 -0.1,-0.4 -0.1,-0.6c0,-0.2 -0.1,-0.5 -0.1,-0.7c0,-0.1 0,-0.3 -0.1,-0.4c0.1,-0.2 0.1,-0.3 0.1,-0.4zm0.7,3.5c-0.1,0 -0.1,0 -0.2,0c-0.2,0 -0.4,-0.1 -0.5,-0.4c-0.1,-0.3 0,-0.6 0.3,-0.7c0.3,-0.1 0.6,0 0.7,0.4c0.1,0.4 0,0.6 -0.3,0.7z" fill="#3e465b"/>
   <path d="m24,8.5c-0.2,-0.6 -0.6,-1.3 -1.2,-1.3l-15.5,0c-0.8,0 -1.3,0.7 -1.3,1.5l0,10.6c0,0.7 0.5,0.9 1.2,0.9l5.2,0l0.3,0c0,0 0.2,0.3 0,0.3l-0.6,0.1c-0.4,0 -0.7,0.1 -1.1,0.2c-0.6,0.1 -0.7,0.3 -0.7,0.8c0,0.1 0,0.2 0,0.3c0,0.2 0.3,0.4 0.4,0.5c0.3,0.1 0.7,0.2 1,0.2c1,0.1 2.1,0.2 3.1,0.2c0.6,0 1.1,0 1.7,0c0.7,0 1.5,-0.1 2.4,-0.3c0.7,-0.1 0.8,-0.3 0.8,-0.9c0,-0.3 -0.1,-0.5 -0.4,-0.6l-0.1,0c-0.3,-0.1 -0.6,-0.1 -1,-0.2c-0.4,0 -0.4,-0.1 -0.8,-0.2l0.1,-0.3l5.1,0c0.8,0 1.1,-0.3 1.4,-1l0,-10.8zm-1,10.7l-16,0l0,-11l16,0l0,11z" fill="#3e465b"/>
   <path d="m13,14.6c-0.2,0 -0.3,0 -0.5,0c-0.2,0 -0.4,0.1 -0.4,0.3c0,0.3 0,0.7 0,1c0,0.3 0,0.7 0,1c0,0.2 0.1,0.3 0.3,0.3c0.2,0 0.4,0 0.5,0c0.2,0 0.3,-0.1 0.3,-0.3c0,-0.7 0,-1.3 0,-2c0.1,-0.2 0,-0.3 -0.2,-0.3z" fill="#3e465b"/>
   <path d="m11.4,10.8c-0.2,0 -0.3,0 -0.5,0c-0.2,0 -0.4,0.2 -0.4,0.8c0,0.8 0,1.6 0,2.4c0,0.8 0,1.7 0,2.5c0,0.5 0.1,0.7 0.3,0.7c0.2,0 0.4,0 0.5,0c0.2,0 0.3,-0.3 0.3,-0.7c0,-1.7 0,-3.3 0,-5c0.1,-0.4 0,-0.6 -0.2,-0.7z" fill="#3e465b"/>
   <path d="m9.8,13.3c-0.2,0 -0.3,0 -0.5,0c-0.3,0 -0.4,0.2 -0.4,0.5c0,0.5 0,1 0,1.5c0,0.5 0,1 0,1.5c0,0.3 0.1,0.4 0.4,0.4c0.2,0 0.4,0 0.5,0c0.2,0 0.3,-0.2 0.3,-0.4c0,-1 0,-2 0,-3c0,-0.3 -0.1,-0.5 -0.3,-0.5z" fill="#3e465b"/>
</svg>
