<?xml version="1.0" encoding="utf-8"?>
<!-- Generator: Adobe Illustrator 19.0.0, SVG Export Plug-In . SVG Version: 6.00 Build 0)  -->
<svg version="1.1" id="Layer_1" xmlns="http://www.w3.org/2000/svg" xmlns:xlink="http://www.w3.org/1999/xlink" x="0px" y="0px"
viewBox="0 0 30 30" style="enable-background:new 0 0 30 30;" xml:space="preserve">
	<path d="m21.384375,12.2c0,0.2 0,0.3 0,0.5c0,0.1 0,0.1 0,0.2c0,0.8 -0.2,1.6 -0.5,2.4c-0.8,2.4 -2.2,4.6 -3.9,6.5c-0.7,0.7 -1.3,1.5 -2,2.2c0,0 0,0 0,0c-0.3,-0.3 -0.5,-0.7 -0.8,-1c-0.9,-1 -1.8,-2.1 -2.6,-3.2c-1,-1.5 -1.9,-3.1 -2.5,-4.9c-0.5,-1.3 -0.6,-2.6 -0.3,-3.9c0.6,-2.5 2.2,-4.1 4.6,-4.8c0.4,-0.1 0.8,-0.1 1.2,-0.2c0.3,0 0.6,0 0.9,0c0.2,0 0.5,0.1 0.7,0.1c2.6,0.6 4.3,2.1 5,4.7c0.1,0.5 0.1,0.9 0.2,1.4zm-3.5,0.2c0,-1.6 -1.3,-2.9 -2.9,-2.9c-1.6,0 -2.9,1.3 -2.9,2.9c0,1.6 1.3,2.9 2.9,2.9c1.6,0 2.9,-1.3 2.9,-2.9z" fill="white"/>
</svg>
