<?xml version="1.0" encoding="utf-8"?>
<!-- Generator: Adobe Illustrator 19.0.0, SVG Export Plug-In . SVG Version: 6.00 Build 0)  -->
<svg version="1.1" id="Layer_1" xmlns="http://www.w3.org/2000/svg" xmlns:xlink="http://www.w3.org/1999/xlink" x="0px" y="0px"
	viewBox="0 0 30 30" style="enable-background:new 0 0 30 30;" xml:space="preserve">
	 <path d="m6,15c0,-5 4,-9 9,-9c5,0 9,4 9,9c0,5 -4,9 -9,9c-5,0 -9,-4 -9,-9zm11.1,-1.7c-1.5,0 -2.8,0 -4.2,0c0,1.2 0,2.3 0,3.5c1.5,0 2.8,0 4.2,0c0,-1.2 0,-2.4 0,-3.5zm-6.2,3.4c0,-1.2 0,-2.4 0,-3.5c-1,0 -1.9,0 -3,0c0,1.2 0,2.3 0,3.5c1.2,0 2.1,0 3,0zm11.1,0.1c0,-1.2 0,-2.3 0,-3.5c-1.1,0 -2.1,0 -3,0c0,1.2 0,2.3 0,3.5c1,0 2,0 3,0zm-6.8,-9c-0.1,0 -0.3,0 -0.4,0c-0.5,1.1 -1,2.3 -1.6,3.5c1.3,0 2.3,0 3.6,0c-0.6,-1.2 -1.1,-2.4 -1.6,-3.5zm-0.4,14.2c0.1,0 0.3,0 0.4,0c0.5,-1.1 1,-2.3 1.5,-3.5c-1.3,0 -2.3,0 -3.5,0c0.6,1.3 1.1,2.4 1.6,3.5zm6.5,-10.7c-1,-1.8 -2.9,-3.1 -4,-3.2c0.3,0.8 1.1,3 1.3,3.1c0.1,0.2 1.5,0.1 2.7,0.1zm-2.7,7.3c-0.4,1 -0.7,2 -1.2,3.1c1.6,-0.7 2.8,-1.6 3.7,-3.1c-0.9,0 -1.7,0 -2.5,0zm-6,-10.4c-1.7,0.5 -3.2,1.6 -3.9,3.1c0.7,0 2.6,0.1 2.7,0c0.2,-0.7 0.9,-2.2 1.2,-3.1zm-0.1,13.5c0.1,-0.1 -1,-2.7 -1.1,-3.2c-0.6,0 -1.7,-0.1 -2.9,-0.1c0.7,1.3 2.1,2.7 4,3.3z" fill="white"/>

	
</svg>
