<?xml version="1.0" encoding="utf-8"?>
<!-- Generator: Adobe Illustrator 19.0.0, SVG Export Plug-In . SVG Version: 6.00 Build 0)  -->
<svg version="1.1" id="Layer_1" xmlns="http://www.w3.org/2000/svg" xmlns:xlink="http://www.w3.org/1999/xlink" x="0px" y="0px"
viewBox="0 0 30 30" style="enable-background:new 0 0 30 30;" xml:space="preserve">

	<path d="m16,5.8c1.9,0 3.9,0 5.8,0c0.4,0.1 0.6,0.4 0.8,0.7c0.3,0.7 0.5,1.4 0.8,2.1c0,0 0,0 0,0c-3,0 -6,0 -9,0c0.3,-0.7 0.5,-1.4 0.8,-2.1c0.2,-0.3 0.4,-0.6 0.8,-0.7z"  fill="#3e465b"/>
   <path d="m23.5,12.5c0,0.4 0,0.8 0,1.2c-0.1,0.2 -0.2,0.3 -0.4,0.3c-2.7,0 -5.5,0 -8.2,0c-0.3,0 -0.4,-0.1 -0.4,-0.4c0,-0.3 0,-0.6 0,-0.8c0,-0.4 0.1,-0.5 0.5,-0.5c2.7,0 5.4,0 8.2,0c0.1,0 0.2,0 0.3,0.2zm-0.7,0.6c0,-0.3 -0.2,-0.5 -0.5,-0.5c-0.3,0 -0.5,0.2 -0.5,0.5c0,0.3 0.2,0.5 0.5,0.5c0.3,0.1 0.5,-0.2 0.5,-0.5z"  fill="#3e465b"/>
   <path d="m23.5,15.2c0,0.4 0,0.8 0,1.2c-0.1,0.2 -0.3,0.3 -0.5,0.3c-0.1,0 -0.2,0 -0.3,0c-2.6,0 -5.2,0 -7.8,0c-0.4,0 -0.5,-0.1 -0.5,-0.5c0,-0.2 0,-0.5 0,-0.7c0,-0.4 0.1,-0.5 0.5,-0.5c2.7,0 5.4,0 8.2,0c0.2,0 0.3,0 0.4,0.2zm-0.7,0.6c0,-0.3 -0.2,-0.5 -0.5,-0.5c-0.3,0 -0.5,0.2 -0.5,0.5c0,0.3 0.2,0.5 0.5,0.5c0.3,0.1 0.5,-0.2 0.5,-0.5z"  fill="#3e465b"/>
   <path d="m23.5,9.8c0,0.4 0,0.8 0,1.2c-0.1,0.2 -0.2,0.3 -0.4,0.3c-2.7,0 -5.5,0 -8.2,0c-0.3,0 -0.4,-0.1 -0.4,-0.4c0,-0.3 0,-0.6 0,-0.9c0,-0.3 0.1,-0.5 0.5,-0.5c2.7,0 5.4,0 8.2,0c0.1,0.1 0.2,0.1 0.3,0.3zm-0.7,0.6c0,-0.3 -0.2,-0.5 -0.5,-0.5c-0.3,0 -0.5,0.2 -0.5,0.5c0,0.3 0.2,0.5 0.5,0.5c0.3,0.1 0.5,-0.2 0.5,-0.5z"  fill="#3e465b"/>
   <path d="m11.1,16.4c0,0.3 0,0.6 0,0.9c0,0.4 -0.2,0.5 -0.6,0.6c-0.3,0 -0.6,0 -0.9,0c0,0.3 0,0.6 0,1c0.1,0 0.2,0 0.3,0c0.8,0 1.6,0 2.4,0c0.6,0 0.7,0.1 0.7,0.8c0,0.4 0,0.8 0,1.2c0.3,0 0.6,0 0.9,0.1c0.2,0.1 0.4,0.3 0.6,0.5c0.6,-0.6 1,-1.5 1,-3.1c0.3,0 0.6,0 1,0c0.1,0.9 0,1.7 -0.4,2.4c-1,2.2 -3.4,3.4 -5.7,2.8c-2.3,-0.6 -3.9,-2.7 -3.7,-5.1c0.2,-3 3.2,-5.2 6.1,-4.5c0.2,0.1 0.3,0.2 0.3,0.4c0,0.3 0,0.6 0,0.9c0,0.6 -0.4,1 -1,1c-0.3,0.1 -0.6,0.1 -1,0.1zm-3.3,1.6c-0.6,2.2 1.2,4.6 3.3,4.7c0,-0.3 0,-0.6 0,-0.9c-0.7,-0.1 -1,-0.5 -1,-1.2c0,-0.2 -0.1,-0.4 -0.2,-0.5c-0.6,-0.6 -1.3,-1.3 -1.9,-1.9c0,0 -0.1,-0.1 -0.2,-0.2z"  fill="#3e465b"/>

</svg>
