<?xml version="1.0" encoding="utf-8"?>
<!-- Generator: Adobe Illustrator 19.0.0, SVG Export Plug-In . SVG Version: 6.00 Build 0)  -->
<svg version="1.1" id="Layer_1" xmlns="http://www.w3.org/2000/svg" xmlns:xlink="http://www.w3.org/1999/xlink" x="0px" y="0px"
	viewBox="0 0 30 30" style="enable-background:new 0 0 30 30;" xml:space="preserve">

	 <path d="m17.17071,14.499997c-0.1,0.4 -0.2,0.8 -0.3,1.1c0.3,0 0.5,0 0.8,0c-0.1,0.3 -0.2,0.6 -0.2,0.9c-0.2,0 -0.5,0 -0.7,0c-0.1,0 -0.1,0 -0.1,0.1c-0.1,0.4 -0.2,0.8 -0.3,1.2c0,0 0,0 0,0c0.3,0 0.5,0 0.8,0c-0.1,0.3 -0.2,0.6 -0.2,0.9c-0.2,0 -0.5,0 -0.7,0c-0.1,0 -0.1,0 -0.1,0.1c-0.1,0.3 -0.2,0.7 -0.3,1c0,0 0,0 0,0.1c-0.3,0 -0.6,0 -0.9,0c0.1,-0.4 0.2,-0.7 0.3,-1.1c0,0 0,0 -0.1,0c-0.3,0 -0.7,0 -1,0c-0.1,0 -0.1,0 -0.1,0.1c-0.1,0.3 -0.2,0.7 -0.3,1c0,0 0,0 0,0.1c-0.3,0 -0.6,0 -0.9,0c0.1,-0.4 0.2,-0.7 0.3,-1.1c-0.3,0 -0.5,0 -0.8,0c-0.1,-0.4 0,-0.7 0.1,-1c0.2,0 0.5,0 0.7,0c0.1,0 0.1,0 0.1,-0.1c0.1,-0.4 0.2,-0.8 0.3,-1.2c0,0 0,0 0,-0.1c-0.3,0 -0.5,0 -0.8,0c0.1,-0.3 0.2,-0.6 0.2,-0.9c0.3,0 0.5,0 0.8,0c0.1,-0.4 0.2,-0.8 0.3,-1.1c0.3,0 0.6,0 0.9,0c0,0.3 -0.1,0.7 -0.2,1.1c0.4,0 0.8,0 1.1,0c0.1,-0.4 0.2,-0.8 0.3,-1.1c0.3,0 0.7,0 1,0zm-1.8,3.4c0.1,-0.5 0.2,-1 0.3,-1.4c-0.4,0 -0.7,0 -1.1,0c0,0 0,0 -0.1,0.1c0,0.1 0,0.3 -0.1,0.5c-0.1,0.3 -0.1,0.5 -0.2,0.8c0.4,0 0.8,0 1.2,0z" fill="white"/>
  <path d="m21.5,10.7c-1.4,-1.5 -2.6,-2.8 -4,-4.3c-0.2,-0.3 -0.6,-0.4 -0.9,-0.4c-1.8,0 -7.4,0 -7.4,0c-0.5,0 -0.9,0.2 -0.9,0.8l0,15.9c0.1,0.6 0.7,1.3 1.3,1.3l11.1,0c0.9,-0.1 1,-0.8 1,-1.4c0,0 0,-7.7 0,-10.9c0,-0.3 0,-0.8 -0.2,-1zm-4.9,-0.1l0,-2.8l2.7,2.8l-2.7,0zm-0.3,1.3l3.7,0l0,10.5l-10,-0.1l0,-14.5l4.9,0l0,2.8c0,1 0.6,1.2 1.4,1.3z" fill="white"/>

</svg>
