<?xml version="1.0" encoding="utf-8"?>
<!-- Generator: Adobe Illustrator 19.0.0, SVG Export Plug-In . SVG Version: 6.00 Build 0)  -->
<svg version="1.1" id="Layer_1" xmlns="http://www.w3.org/2000/svg" xmlns:xlink="http://www.w3.org/1999/xlink" x="0px" y="0px"
	viewBox="0 0 30 30" style="enable-background:new 0 0 30 30;" xml:space="preserve">

	 <path d="m15.1,6c-5,0 -9.1,4 -9.1,8.9c0,5 4,9 8.9,9.1c5,0 9,-4 9.1,-8.9c0,-5 -4,-9.1 -8.9,-9.1zm-1.1,16c-3,0.3 -7.2,-3.8 -6,-8.5c1.4,1.4 2.6,2.6 3.9,3.9c0.2,0.2 0.3,0.5 0.3,0.8c0.2,1.5 0.8,1.7 1.8,2.3c0,0.5 0,1 0,1.5zm5.5,-2.2c-0.9,-0.4 -3.1,-1.1 -4.5,-1.6c0,-0.1 0,-0.6 0,-1c-0.1,-0.5 0.5,-1.2 0.4,-1.2c-1.3,0 -2.4,0 -4.4,0c0,0 0,-2.1 0,-2.7c0,-0.1 2,0 2.5,-0.5c0.5,-0.4 0.6,-1.4 0.8,-2.3c1.4,-0.1 3.3,0.4 3.5,-2.1c4.5,1.9 4.9,8.2 1.7,11.4z" fill="white"/>
</svg>
