<?xml version="1.0" encoding="utf-8"?>
<!-- Generator: Adobe Illustrator 19.0.0, SVG Export Plug-In . SVG Version: 6.00 Build 0)  -->
<svg version="1.1" id="Layer_1" xmlns="http://www.w3.org/2000/svg" xmlns:xlink="http://www.w3.org/1999/xlink" x="0px" y="0px"
	viewBox="0 0 30 30" style="enable-background:new 0 0 30 30;" xml:space="preserve">

	 <polygon points="16.212451934814453,16.112444393336773 16.212451934814453,17.012444011867046 14.412452697753906,14.912445537745953 14.012453079223633,15.2124447748065 15.812453269958496,17.41244363039732 14.912452697753906,17.212442867457867 15.412452697753906,17.91244363039732 16.712451934814453,18.112444393336773 16.712451934814453,16.812443248927593 " fill="white"/>
  <polygon points="16.81245231628418,15.112448208034039 14.712451934814453,12.612448208034039 15.712451934814453,12.812447063624859 15.112452507019043,12.112448208034039 13.812453269958496,11.912445537745953 13.812453269958496,13.212446682155132 14.31245231628418,13.912445537745953 14.31245231628418,13.012444011867046 16.412452697753906,15.512444011867046 " fill="white"/>
  <path d="m10.412453,14.712453c0.2,0.4 0.5,0.6 0.7,1.6c-0.8,0 -1.8,0 -2.7,0c0.2,-1 0.5,-1.1 0.7,-1.6c-0.7,0 -1.5,-0.1 -1.9,-0.1c-0.7,-0.1 -0.9,-0.3 -0.9,-1c0,-1.1 0,-2.3 0,-3.5c0,-0.6 0.2,-0.8 0.8,-0.8c1.8,0 3.5,0 5.3,0c0.6,0 0.8,0.2 0.8,0.8c0,1.2 0,2.4 0,3.6c0,0.6 -0.2,0.9 -0.8,0.9c-0.7,0.1 -1.3,0.1 -2,0.1zm1.8,-4.4c-2,0 -3,0 -5.1,0c0,2 0,1 0,3c2,0 3,0 5.1,0c0,-2 0,-1 0,-3z" fill="white"/>
  <path d="m21.612453,19.912453c0.1,0.2 0.5,0.4 0.7,1.4c-0.8,0 -1.8,0 -2.7,0c0.2,-1 0.5,-1.1 0.7,-1.4c-0.7,0 -1.5,0 -1.9,-0.1c-0.7,-0.1 -0.8,-0.2 -0.8,-0.9c0,-1.2 0,-2.3 0,-3.5c0,-0.6 0.2,-0.8 0.8,-0.8c1.8,0 3.5,0 5.3,0c0.6,0 0.8,0.2 0.8,0.8c0,1.2 0,2.4 0,3.6c0,0.6 -0.2,0.8 -0.8,0.9c-0.7,0 -1.5,0 -2.1,0zm1.7,-4.6c-2,0 -3,0 -5,0c0,1 0,3.8 0,3.8c2.1,0 3,0 5,0c0,0 0,-2.8 0,-3.8z" fill="white"/>
</svg>
