<?xml version="1.0" encoding="utf-8"?>
<!-- Generator: Adobe Illustrator 19.0.0, SVG Export Plug-In . SVG Version: 6.00 Build 0)  -->
<svg version="1.1" id="Layer_1" xmlns="http://www.w3.org/2000/svg" xmlns:xlink="http://www.w3.org/1999/xlink" x="0px" y="0px"
	viewBox="0 0 30 30" style="enable-background:new 0 0 30 30;" xml:space="preserve">
	 <path d="m10.2,6c3.2,0 6.4,0 9.6,0c0.7,0.2 1,0.6 1.3,1.2c0.5,1.1 0.9,2.3 1.3,3.5c0,0 0,0 0,0c-5,0 -9.9,0 -14.9,0c0.5,-1.2 0.9,-2.3 1.4,-3.5c0.2,-0.6 0.6,-1 1.3,-1.2z" fill="#3e465b"/>
   <path d="m22.5,17.1c0,0.6 0,1.3 0,1.9c-0.1,0.3 -0.4,0.5 -0.7,0.5c-4.5,0 -9.1,0 -13.6,0c-0.5,0 -0.7,-0.2 -0.7,-0.7c0,-0.5 0,-0.9 0,-1.4c0,-0.6 0.2,-0.8 0.8,-0.8c4.5,0 9,0 13.5,0c0.3,0.1 0.6,0.2 0.7,0.5zm-1.1,1c0,-0.5 -0.4,-0.9 -0.9,-0.9c-0.5,0 -0.9,0.4 -0.9,0.8c0,0.5 0.4,0.9 0.8,0.9c0.6,0.1 1,-0.3 1,-0.8z" fill="#3e465b"/>
   <path d="m22.5,21.6c0,0.6 0,1.3 0,1.9c-0.1,0.4 -0.4,0.5 -0.8,0.5c-0.2,0 -0.4,0 -0.5,0c-4.3,0 -8.6,0 -12.8,0c-0.7,0 -0.9,-0.2 -0.9,-0.8c0,-0.4 0,-0.8 0,-1.2c0,-0.6 0.2,-0.8 0.8,-0.8c4.5,0 9,0 13.5,0c0.3,-0.1 0.6,0 0.7,0.4zm-1.1,0.9c0,-0.5 -0.4,-0.9 -0.9,-0.9c-0.5,0 -0.8,0.4 -0.9,0.9c0,0.5 0.4,0.9 0.9,0.9c0.5,0 0.9,-0.4 0.9,-0.9z" fill="#3e465b"/>
   <path d="m22.5,12.7c0,0.6 0,1.3 0,1.9c-0.1,0.3 -0.4,0.5 -0.7,0.5c-4.5,0 -9.1,0 -13.6,0c-0.5,0 -0.7,-0.2 -0.7,-0.7c0,-0.5 0,-0.9 0,-1.4c0,-0.6 0.2,-0.8 0.8,-0.8c4.5,0 9,0 13.5,0c0.3,0 0.6,0.1 0.7,0.5zm-1.1,0.9c0,-0.5 -0.4,-0.9 -0.9,-0.9c-0.5,0 -0.9,0.4 -0.9,0.9c0,0.5 0.4,0.9 0.9,0.9c0.5,0 0.9,-0.4 0.9,-0.9z" fill="#3e465b"/>

</svg>
