<?xml version="1.0" encoding="utf-8"?>
<!-- Generator: Adobe Illustrator 19.0.0, SVG Export Plug-In . SVG Version: 6.00 Build 0)  -->
<svg version="1.1" id="Layer_1" xmlns="http://www.w3.org/2000/svg" xmlns:xlink="http://www.w3.org/1999/xlink" x="0px" y="0px"
viewBox="0 0 30 30" style="enable-background:new 0 0 30 30;" xml:space="preserve">
	 <path d="m6,15c0,-5 4,-9 9,-9c5,0 9,4.1 9,9c0,4.9 -4.1,9 -9,9c-5,0 -9,-4 -9,-9zm16.2,0c0,-4 -3.2,-7.2 -7.2,-7.2c-4,0 -7.2,3.2 -7.2,7.2c0,4 3.2,7.2 7.2,7.2c4,0 7.2,-3.2 7.2,-7.2z" fill="white"/>
   <path d="m14.1,10.5c0.5,0 0.9,0 1.3,0c0,1.4 0,2.8 0,4.2c0,0.4 0.1,0.6 0.4,0.8c1.2,0.7 2.4,1.4 3.6,2.1c-0.2,0.4 -0.4,0.7 -0.7,1.1c-1.5,-0.9 -3,-1.8 -4.5,-2.7c0,0 -0.1,-0.2 -0.1,-0.3c0,-1.7 0,-3.4 0,-5.2z" fill="white"/>
</svg>
