<?xml version="1.0" encoding="utf-8"?>
<!-- Generator: Adobe Illustrator 19.0.0, SVG Export Plug-In . SVG Version: 6.00 Build 0)  -->
<svg version="1.1" id="Layer_1" xmlns="http://www.w3.org/2000/svg" xmlns:xlink="http://www.w3.org/1999/xlink" x="0px" y="0px"
	viewBox="0 0 30 30" style="enable-background:new 0 0 30 30;" xml:space="preserve">
	 <path d="m6.05,23.95c0,-1 0,-1.9 0,-2.7c-0.1,-1.3 0.5,-2.2 1.5,-2.9c3.8,-2.7 11.1,-2.7 14.9,0c1,0.7 1.6,1.6 1.5,2.9c-0.1,0.9 0,1.8 0,2.7c-5.9,0 -11.8,0 -17.9,0zm2.3,-2.1c4.4,0 8.9,0 13.3,0c0.2,-1.4 0.2,-1.5 -0.9,-2.1c-3.8,-1.9 -7.7,-1.9 -11.6,0c-0.8,0.4 -1.2,1 -0.8,2.1z" fill="#3e465b"/>
   <path d="m15.05,15.05c-2.4,0 -4.5,-2 -4.5,-4.4c0,-2.5 2,-4.6 4.5,-4.5c2.5,0 4.4,2.1 4.4,4.5c0.1,2.4 -1.9,4.4 -4.4,4.4zm2.3,-4.4c0,-1.3 -0.9,-2.3 -2.2,-2.4c-1.4,0 -2.4,1 -2.4,2.3c0,1.3 1,2.3 2.3,2.3c1.3,0.1 2.3,-0.9 2.3,-2.2z" fill="#3e465b"/>

</svg>
