<?xml version="1.0" encoding="utf-8"?>
<!-- Generator: Adobe Illustrator 19.0.0, SVG Export Plug-In . SVG Version: 6.00 Build 0)  -->
<svg version="1.1" id="Layer_1" xmlns="http://www.w3.org/2000/svg" xmlns:xlink="http://www.w3.org/1999/xlink" x="0px" y="0px"
	viewBox="0 0 30 30" style="enable-background:new 0 0 30 30;" xml:space="preserve">
	 <path d="m15,7.8c2.3,0 4.6,0 6.8,0c1.5,0 2.1,0.7 2.2,2.1c0,3.4 0,6.8 0,10.2c0,1.4 -0.7,2.1 -2.1,2.1c-4.6,0 -9.2,0 -13.8,0c-1.4,0 -2.1,-0.7 -2.1,-2.2c0,-3.4 0,-6.7 0,-10.1c0,-1.5 0.7,-2.1 2.1,-2.1c2.3,0 4.6,0 6.9,0zm2.6,8.1c0,-1.2 0,-2.4 0,-3.5c-3.3,0 -6.5,0 -9.7,0c0,1.2 0,2.4 0,3.5c3.3,0 6.4,0 9.7,0zm0,1c-3.3,0 -6.6,0 -9.8,0c0,1.2 0,2.4 0,3.5c3.3,0 6.5,0 9.8,0c0,-1.2 0,-2.3 0,-3.5zm4.5,3.4c0,-2.7 0,-5.4 0,-8c-1.2,0 -2.3,0 -3.5,0c0,2.7 0,5.3 0,8c1.2,0 2.3,0 3.5,0z" fill="white"/>

	
</svg>
