<?xml version="1.0" encoding="utf-8"?>
<!-- Generator: Adobe Illustrator 19.0.0, SVG Export Plug-In . SVG Version: 6.00 Build 0)  -->
<svg version="1.1" id="Layer_1" xmlns="http://www.w3.org/2000/svg" xmlns:xlink="http://www.w3.org/1999/xlink" x="0px" y="0px"
	 viewBox="0 0 18 18" style="enable-background:new 0 0 18 18;" xml:space="preserve">
<g id="XMLID_1430_">
	<path id="_x3C_Path_x3E__1_" d="M15.2,9.2c-0.8-1.5-1.6-2.9-2.4-4.4c0-0.1-0.1-0.1-0.1-0.2c-0.2-0.1-0.3-0.1-0.5-0.1
		c-0.1,0-0.2,0.1-0.3,0.2c-0.1,0.2-0.2,0.4-0.4,0.6C10.6,7,9.8,8.5,8.9,10c-0.1,0.2-0.1,0.4-0.1,0.6c0,0.2,0.2,0.3,0.4,0.3
		c0.1,0,6,0,6.1,0c0.2,0,0.3-0.1,0.4-0.2c0.1-0.2,0.1-0.4,0-0.6C15.5,9.8,15.4,9.5,15.2,9.2z M11.8,6.6c0-0.2,0.1-0.3,0.3-0.3
		c0.2-0.1,0.3-0.1,0.5,0c0.1,0.1,0.2,0.2,0.2,0.4c0,0.1,0,0.3,0,0.4c0,0.2-0.1,0.4-0.1,0.6c0,0.2-0.1,0.4-0.1,0.6
		c0,0.1,0,0.2-0.1,0.4c0,0,0,0,0,0c0,0-0.1,0-0.1,0c-0.2,0-0.2,0-0.3,0c0,0-0.1,0-0.1,0c0-0.2-0.1-0.4-0.1-0.6
		c0-0.2-0.1-0.5-0.1-0.7c0-0.1,0-0.3-0.1-0.4C11.8,6.8,11.8,6.7,11.8,6.6z M12.5,10.1c-0.1,0-0.1,0-0.2,0c-0.2,0-0.4-0.1-0.5-0.4
		c-0.1-0.3,0-0.6,0.3-0.7c0.3-0.1,0.6,0,0.7,0.4C12.9,9.8,12.8,10,12.5,10.1z"/>
	<path id="_x3C_Path_x3E__5_" d="M18,2.3C17.8,1.7,17.4,1,16.8,1H1.3C0.5,1,0,1.7,0,2.5v10.6C0,13.8,0.5,14,1.2,14h5.2h0.3
		c0,0,0.2,0.3,0,0.3l-0.6,0.1c-0.4,0-0.7,0.1-1.1,0.2c-0.6,0.1-0.7,0.3-0.7,0.8c0,0.1,0,0.2,0,0.3c0,0.2,0.3,0.4,0.4,0.5
		c0.3,0.1,0.7,0.2,1,0.2c1,0.1,2.1,0.2,3.1,0.2c0.6,0,1.1,0,1.7,0c0.7,0,1.5-0.1,2.4-0.3c0.7-0.1,0.8-0.3,0.8-0.9
		c0-0.3-0.1-0.5-0.4-0.6l-0.1,0c-0.3-0.1-0.6-0.1-1-0.2c-0.4,0-0.4-0.1-0.8-0.2l0.1-0.3h5.1c0.8,0,1.1-0.3,1.4-1L18,2.3z M17,13H1
		L1,2h16L17,13z"/>
	<path id="XMLID_472_" d="M7,8.4c-0.2,0-0.3,0-0.5,0c-0.2,0-0.4,0.1-0.4,0.3c0,0.3,0,0.7,0,1c0,0.3,0,0.7,0,1c0,0.2,0.1,0.3,0.3,0.3
		c0.2,0,0.4,0,0.5,0c0.2,0,0.3-0.1,0.3-0.3c0-0.7,0-1.3,0-2C7.3,8.5,7.2,8.4,7,8.4z"/>
	<path id="XMLID_471_" d="M5.4,4.6c-0.2,0-0.3,0-0.5,0c-0.2,0-0.4,0.2-0.4,0.8c0,0.8,0,1.6,0,2.4c0,0.8,0,1.7,0,2.5
		c0,0.5,0.1,0.7,0.3,0.7c0.2,0,0.4,0,0.5,0c0.2,0,0.3-0.3,0.3-0.7c0-1.7,0-3.3,0-5C5.7,4.9,5.6,4.7,5.4,4.6z"/>
	<path id="XMLID_470_" d="M3.8,7.1c-0.2,0-0.3,0-0.5,0C3,7.1,2.9,7.3,2.9,7.6c0,0.5,0,1,0,1.5c0,0.5,0,1,0,1.5C2.9,10.9,3,11,3.3,11
		c0.2,0,0.4,0,0.5,0c0.2,0,0.3-0.2,0.3-0.4c0-1,0-2,0-3C4.1,7.3,4,7.1,3.8,7.1z"/>
</g>
</svg>
