<?xml version="1.0" encoding="utf-8"?>
<!-- Generator: Adobe Illustrator 19.0.0, SVG Export Plug-In . SVG Version: 6.00 Build 0)  -->
<svg version="1.1" id="Layer_1" xmlns="http://www.w3.org/2000/svg" xmlns:xlink="http://www.w3.org/1999/xlink" x="0px" y="0px"
	 viewBox="0 0 18 18" style="enable-background:new 0 0 18 18;" xml:space="preserve">
<path id="_x3C_Path_x3E__20_" d="M9,18c-2.2,0-4.4,0-6.6,0C0.8,18,0,17.3,0,15.6c0-4.4,0-8.9,0-13.3C0,0.8,0.8,0,2.3,0
	c4.4,0,8.9,0,13.3,0C17.2,0,18,0.8,18,2.3c0,4.5,0,9,0,13.5c0,1.5-0.8,2.2-2.3,2.2C13.5,18,11.2,18,9,18z M7.5,16
	c0,0,0.6,0.1,0.9,0.1c0.5,0,1.7,0.1,1.8-0.2c0.1-0.4,0.3-1.4,0.7-1.8c0.3-0.4,1.4-0.8,1.7-0.6c1.7,1,2.1-0.1,2.8-1.2
	c0.5-0.9,0.4-1.3-0.4-1.9c-1-0.7-1-1.7,0-2.4c0.9-0.6,1-0.8,0.3-2c-0.1-0.2-0.3-0.5-0.4-0.6C14.3,4.1,14,4,13,4.5
	c-1.1,0.5-1.9-0.1-2.1-1.3c-0.1-0.4-0.1-1.1-0.2-1.1c0-0.2-2.9-0.3-2.9,0c0,0.1-0.2,1.5-0.5,1.9C6.9,4.5,5.7,4.7,5.5,4.6
	c-1.7-1-2.1,0.2-2.8,1.3C2.1,6.7,2.3,7.2,3.1,7.8c1,0.7,1,1.8,0,2.4c-0.9,0.6-1,0.8-0.3,2c0.1,0.2,0.3,0.4,0.4,0.6
	c0.6,1.1,0.9,1.1,1.8,0.7c1.1-0.5,1.9,0,2.1,1.2C7.2,15.1,7.3,15.7,7.5,16z"/>
<path id="XMLID_582_" d="M11,9c0,1.1-0.9,2-2,2c-1.1,0-2.1-0.9-2-2C7,7.9,7.9,7,9,7C10.1,7,11,7.9,11,9z"/>
</svg>
