<?xml version="1.0" encoding="utf-8"?>
<!-- Generator: Adobe Illustrator 19.0.0, SVG Export Plug-In . SVG Version: 6.00 Build 0)  -->
<svg version="1.1" id="Layer_1" xmlns="http://www.w3.org/2000/svg" xmlns:xlink="http://www.w3.org/1999/xlink" x="0px" y="0px"
	 viewBox="0 0 18 18" style="enable-background:new 0 0 18 18;" xml:space="preserve">
<path id="_x3C_Path_x3E_" d="M10.8,14.2c0.6,1.3,1.3,2.5,1.9,3.8c-2.2,0-4.7,0-7.2,0c0.7-1.3,1.2-2.7,1.8-3.8c-1.5,0-3.4-0.1-5-0.2
	C1,13.9,0,13.3,0,11.5c0-3.1,0-6.2,0-9.3C0,0.6,0.6,0,2.1,0C6.7,0,11.3,0,16,0c1.5,0,2,0.6,2,2.1c0,3.1,0,6.3,0,9.4
	c0,1.5-1.1,2.3-2,2.4C14.6,14,12.6,14.2,10.8,14.2z M15.7,2.6c-5.3,0-8,0-13.3,0c0,3.9,0.1,7.7,0.1,9c5.3,0,8,0,13.3,0
	C15.7,10.3,15.7,6.4,15.7,2.6z"/>
</svg>
