<?xml version="1.0" encoding="utf-8"?>
<!-- Generator: Adobe Illustrator 19.0.0, SVG Export Plug-In . SVG Version: 6.00 Build 0)  -->
<svg version="1.1" id="Layer_1" xmlns="http://www.w3.org/2000/svg" xmlns:xlink="http://www.w3.org/1999/xlink" x="0px" y="0px"
	 viewBox="0 0 18 18" style="enable-background:new 0 0 18 18;" xml:space="preserve">
<path id="_x3C_Path_x3E__22_" d="M0,9c0-5,4-9,9-9c5,0,9,4,9,9c0,5-4,9-9,9C4,18,0,14,0,9z M11.1,7.3c-1.5,0-2.8,0-4.2,0
	c0,1.2,0,2.3,0,3.5c1.5,0,2.8,0,4.2,0C11.1,9.6,11.1,8.4,11.1,7.3z M4.9,10.7c0-1.2,0-2.4,0-3.5c-1,0-1.9,0-3,0c0,1.2,0,2.3,0,3.5
	C3.1,10.7,4,10.7,4.9,10.7z M16,10.8c0-1.2,0-2.3,0-3.5c-1.1,0-2.1,0-3,0c0,1.2,0,2.3,0,3.5C14,10.8,15,10.8,16,10.8z M9.2,1.8
	c-0.1,0-0.3,0-0.4,0c-0.5,1.1-1,2.3-1.6,3.5c1.3,0,2.3,0,3.6,0C10.2,4.1,9.7,2.9,9.2,1.8z M8.8,16c0.1,0,0.3,0,0.4,0
	c0.5-1.1,1-2.3,1.5-3.5c-1.3,0-2.3,0-3.5,0C7.8,13.8,8.3,14.9,8.8,16z M15.3,5.3c-1-1.8-2.9-3.1-4-3.2c0.3,0.8,1.1,3,1.3,3.1
	C12.7,5.4,14.1,5.3,15.3,5.3z M12.6,12.6c-0.4,1-0.7,2-1.2,3.1c1.6-0.7,2.8-1.6,3.7-3.1C14.2,12.6,13.4,12.6,12.6,12.6z M6.6,2.2
	C4.9,2.7,3.4,3.8,2.7,5.3c0.7,0,2.6,0.1,2.7,0C5.6,4.6,6.3,3.1,6.6,2.2z M6.5,15.7c0.1-0.1-1-2.7-1.1-3.2c-0.6,0-1.7-0.1-2.9-0.1
	C3.2,13.7,4.6,15.1,6.5,15.7z"/>
</svg>
