<?xml version="1.0" encoding="utf-8"?>
<!-- Generator: Adobe Illustrator 19.0.0, SVG Export Plug-In . SVG Version: 6.00 Build 0)  -->
<svg version="1.1" id="Layer_1" xmlns="http://www.w3.org/2000/svg" xmlns:xlink="http://www.w3.org/1999/xlink" x="0px" y="0px"
	 viewBox="0 0 18 18" style="enable-background:new 0 0 18 18;" xml:space="preserve">
<g id="XMLID_1_">
	<path id="_x3C_Path_x3E__2_" d="M9,1.1c-4.3,0-7.9,3.5-7.9,7.8c0,4.4,3.5,7.9,7.8,8c4.4,0,8-3.5,8-7.9C16.9,4.6,13.4,1.1,9,1.1z
		 M9,15.2c-3.4,0-6.2-2.8-6.2-6.2c0-3.3,2.8-6.1,6.1-6.1c3.4,0,6.2,2.8,6.2,6.2C15.1,12.4,12.3,15.1,9,15.2z"/>
	<path id="XMLID_441_" d="M4.2,0.1C2.7,1.4,1.4,2.7,0.1,3.9c0-1.1,0-2.4,0-3.9C1.4,0.1,2.8,0.1,4.2,0.1z"/>
	<path id="XMLID_440_" d="M18,0.1c0,1.4,0,2.7,0,3.9c-1.3-1.3-2.6-2.6-3.9-3.9C15.2,0.1,16.5,0.1,18,0.1z"/>
	<path id="XMLID_439_" d="M0,17.9c0-1.4,0-2.7,0-4c1.3,1.4,2.6,2.7,3.8,4C2.8,17.9,1.5,17.9,0,17.9z"/>
	<path id="XMLID_435_" d="M18,13.8c0,1.3,0,2.7,0,4.2c-1.4,0-2.8,0-4.5,0C14.4,17.1,17.5,14.4,18,13.8z"/>
</g>
</svg>
