<?xml version="1.0" encoding="utf-8"?>
<!-- Generator: Adobe Illustrator 19.0.0, SVG Export Plug-In . SVG Version: 6.00 Build 0)  -->
<svg version="1.1" id="Layer_1" xmlns="http://www.w3.org/2000/svg" xmlns:xlink="http://www.w3.org/1999/xlink" x="0px" y="0px"
	 viewBox="0 0 18 18" style="enable-background:new 0 0 18 18;" xml:space="preserve">
<g id="XMLID_1444_">
	<path id="XMLID_546_" d="M9.9,0c1.9,0,3.9,0,5.8,0c0.4,0.1,0.6,0.4,0.8,0.7c0.3,0.7,0.5,1.4,0.8,2.1c0,0,0,0,0,0c-3,0-6,0-9,0
		c0.3-0.7,0.5-1.4,0.8-2.1C9.3,0.4,9.5,0.1,9.9,0z"/>
	<path id="XMLID_543_" d="M17.4,6.7c0,0.4,0,0.8,0,1.2c-0.1,0.2-0.2,0.3-0.4,0.3c-2.7,0-5.5,0-8.2,0c-0.3,0-0.4-0.1-0.4-0.4
		c0-0.3,0-0.6,0-0.8c0-0.4,0.1-0.5,0.5-0.5c2.7,0,5.4,0,8.2,0C17.2,6.5,17.3,6.5,17.4,6.7z M16.7,7.3c0-0.3-0.2-0.5-0.5-0.5
		c-0.3,0-0.5,0.2-0.5,0.5c0,0.3,0.2,0.5,0.5,0.5C16.5,7.9,16.7,7.6,16.7,7.3z"/>
	<path id="XMLID_540_" d="M17.4,9.4c0,0.4,0,0.8,0,1.2c-0.1,0.2-0.3,0.3-0.5,0.3c-0.1,0-0.2,0-0.3,0c-2.6,0-5.2,0-7.8,0
		c-0.4,0-0.5-0.1-0.5-0.5c0-0.2,0-0.5,0-0.7c0-0.4,0.1-0.5,0.5-0.5c2.7,0,5.4,0,8.2,0C17.2,9.2,17.3,9.2,17.4,9.4z M16.7,10
		c0-0.3-0.2-0.5-0.5-0.5c-0.3,0-0.5,0.2-0.5,0.5c0,0.3,0.2,0.5,0.5,0.5C16.5,10.6,16.7,10.3,16.7,10z"/>
	<path id="XMLID_537_" d="M17.4,4c0,0.4,0,0.8,0,1.2c-0.1,0.2-0.2,0.3-0.4,0.3c-2.7,0-5.5,0-8.2,0c-0.3,0-0.4-0.1-0.4-0.4
		c0-0.3,0-0.6,0-0.9c0-0.3,0.1-0.5,0.5-0.5c2.7,0,5.4,0,8.2,0C17.2,3.8,17.3,3.8,17.4,4z M16.7,4.6c0-0.3-0.2-0.5-0.5-0.5
		c-0.3,0-0.5,0.2-0.5,0.5c0,0.3,0.2,0.5,0.5,0.5C16.5,5.2,16.7,4.9,16.7,4.6z"/>
	<path id="XMLID_533_" d="M5,10.6c0,0.3,0,0.6,0,0.9c0,0.4-0.2,0.5-0.6,0.6c-0.3,0-0.6,0-0.9,0c0,0.3,0,0.6,0,1c0.1,0,0.2,0,0.3,0
		c0.8,0,1.6,0,2.4,0c0.6,0,0.7,0.1,0.7,0.8c0,0.4,0,0.8,0,1.2c0.3,0,0.6,0,0.9,0.1c0.2,0.1,0.4,0.3,0.6,0.5c0.6-0.6,1-1.5,1-3.1
		c0.3,0,0.6,0,1,0c0.1,0.9,0,1.7-0.4,2.4c-1,2.2-3.4,3.4-5.7,2.8c-2.3-0.6-3.9-2.7-3.7-5.1c0.2-3,3.2-5.2,6.1-4.5
		C6.9,8.3,7,8.4,7,8.6c0,0.3,0,0.6,0,0.9c0,0.6-0.4,1-1,1C5.7,10.6,5.4,10.6,5,10.6z M1.7,12.2c-0.6,2.2,1.2,4.6,3.3,4.7
		c0-0.3,0-0.6,0-0.9c-0.7-0.1-1-0.5-1-1.2c0-0.2-0.1-0.4-0.2-0.5c-0.6-0.6-1.3-1.3-1.9-1.9C1.9,12.4,1.8,12.3,1.7,12.2z"/>
</g>
</svg>
