<?xml version="1.0" encoding="utf-8"?>
<!-- Generator: Adobe Illustrator 19.0.0, SVG Export Plug-In . SVG Version: 6.00 Build 0)  -->
<svg version="1.1" id="Layer_1" xmlns="http://www.w3.org/2000/svg" xmlns:xlink="http://www.w3.org/1999/xlink" x="0px" y="0px"
	 viewBox="0 0 18 18" style="enable-background:new 0 0 18 18;" xml:space="preserve">
<path id="_x3C_Path_x3E__8_" d="M10.7,8.6c-0.1,0.4-0.2,0.8-0.3,1.1c0.3,0,0.5,0,0.8,0C11.1,10,11,10.3,11,10.6c-0.2,0-0.5,0-0.7,0
	c-0.1,0-0.1,0-0.1,0.1c-0.1,0.4-0.2,0.8-0.3,1.2c0,0,0,0,0,0c0.3,0,0.5,0,0.8,0c-0.1,0.3-0.2,0.6-0.2,0.9c-0.2,0-0.5,0-0.7,0
	c-0.1,0-0.1,0-0.1,0.1c-0.1,0.3-0.2,0.7-0.3,1c0,0,0,0,0,0.1c-0.3,0-0.6,0-0.9,0c0.1-0.4,0.2-0.7,0.3-1.1c0,0,0,0-0.1,0
	c-0.3,0-0.7,0-1,0c-0.1,0-0.1,0-0.1,0.1c-0.1,0.3-0.2,0.7-0.3,1c0,0,0,0,0,0.1c-0.3,0-0.6,0-0.9,0c0.1-0.4,0.2-0.7,0.3-1.1
	c-0.3,0-0.5,0-0.8,0C5.8,12.6,5.9,12.3,6,12c0.2,0,0.5,0,0.7,0c0.1,0,0.1,0,0.1-0.1c0.1-0.4,0.2-0.8,0.3-1.2c0,0,0,0,0-0.1
	c-0.3,0-0.5,0-0.8,0c0.1-0.3,0.2-0.6,0.2-0.9c0.3,0,0.5,0,0.8,0c0.1-0.4,0.2-0.8,0.3-1.1c0.3,0,0.6,0,0.9,0C8.5,8.9,8.4,9.3,8.3,9.7
	c0.4,0,0.8,0,1.1,0c0.1-0.4,0.2-0.8,0.3-1.1C10,8.6,10.4,8.6,10.7,8.6z M8.9,12C9,11.5,9.1,11,9.2,10.6c-0.4,0-0.7,0-1.1,0
	c0,0,0,0-0.1,0.1C8,10.8,8,11,7.9,11.2c-0.1,0.3-0.1,0.5-0.2,0.8C8.1,12,8.5,12,8.9,12z"/>
<path id="_x3C_Path_x3E__7_" d="M15.5,4.7c-1.4-1.5-2.6-2.8-4-4.3C11.3,0.1,10.9,0,10.6,0C8.8,0,3.2,0,3.2,0C2.7,0,2.3,0.2,2.3,0.8
	l0,15.9C2.4,17.3,3,18,3.6,18h11.1c0.9-0.1,1-0.8,1-1.4c0,0,0-7.7,0-10.9C15.7,5.4,15.7,4.9,15.5,4.7z M10.6,4.6l0-2.8l2.7,2.8
	L10.6,4.6z M10.3,5.9l3.7,0v10.5L4,16.3V1.8l4.9,0l0,2.8C8.9,5.6,9.5,5.8,10.3,5.9z"/>
</svg>
