<?xml version="1.0" encoding="utf-8"?>
<!-- Generator: Adobe Illustrator 19.0.0, SVG Export Plug-In . SVG Version: 6.00 Build 0)  -->
<svg version="1.1" id="Layer_1" xmlns="http://www.w3.org/2000/svg" xmlns:xlink="http://www.w3.org/1999/xlink" x="0px" y="0px"
	 viewBox="0 0 18 18" style="enable-background:new 0 0 18 18;" xml:space="preserve">
<path id="_x3C_Path_x3E__17_" d="M9.1,0C4.1,0,0,4,0,8.9c0,5,4,9,8.9,9.1c5,0,9-4,9.1-8.9C18,4.1,14,0,9.1,0z M8,16
	c-3,0.3-7.2-3.8-6-8.5c1.4,1.4,2.6,2.6,3.9,3.9c0.2,0.2,0.3,0.5,0.3,0.8C6.4,13.7,7,13.9,8,14.5C8,15,8,15.5,8,16z M13.5,13.8
	c-0.9-0.4-3.1-1.1-4.5-1.6c0-0.1,0-0.6,0-1C8.9,10.7,9.5,10,9.4,10C8.1,10,7,10,5,10c0,0,0-2.1,0-2.7c0-0.1,2,0,2.5-0.5
	C8,6.4,8.1,5.4,8.3,4.5c1.4-0.1,3.3,0.4,3.5-2.1C16.3,4.3,16.7,10.6,13.5,13.8z"/>
</svg>
