<?xml version="1.0" encoding="utf-8"?>
<!-- Generator: Adobe Illustrator 19.0.0, SVG Export Plug-In . SVG Version: 6.00 Build 0)  -->
<svg version="1.1" id="Layer_1" xmlns="http://www.w3.org/2000/svg" xmlns:xlink="http://www.w3.org/1999/xlink" x="0px" y="0px"
	 viewBox="0 0 18 18" style="enable-background:new 0 0 18 18;" xml:space="preserve">
<path id="XMLID_430_" d="M11.5,12.3c-0.8,0-1.6-0.5-1.7-1.4c0-0.4,0.1-0.8,0.1-0.8l-2-1.9H6.9l-3.6,3.7c0,0,0,0.4,0,0.6
	c-0.2,0.9-0.9,1.6-1.8,1.5c-0.8-0.1-1.5-0.7-1.5-1.5c-0.1-0.9,0.6-1.5,1.5-1.7c0.2,0,0.5,0,0.5,0s1.2-1.2,1.4-1.3
	C4.1,8.6,4,8.7,4.7,8.1c0.4-0.4,1.2-1.1,1.2-1.1S5.8,6.5,5.8,6.2c0.1-0.8,0.7-1.3,1.6-1.3c0.8,0,1.5,0.5,1.6,1.3
	C8.9,6.4,8.9,7,8.9,7s1.5,1.4,2.2,2c0.1,0.1,0.8,0,0.8,0s1.8-1.8,2.5-2.5c0.1-0.1,0.3-0.4,0.3-0.4s0-0.4,0-0.6
	c0.1-0.8,0.8-1.5,1.7-1.5c0.8,0,1.5,0.7,1.6,1.6c0,0.9-0.7,1.6-1.4,1.7c-0.4,0.1-0.7-0.1-0.7-0.1s-0.4,0.4-0.5,0.5
	c-0.6,0.5-2.3,2.3-2.3,2.3s0,0.5,0,0.9C12.9,11.8,12.3,12.3,11.5,12.3z"/>
</svg>
