<?xml version="1.0" encoding="utf-8"?>
<!-- Generator: Adobe Illustrator 19.0.0, SVG Export Plug-In . SVG Version: 6.00 Build 0)  -->
<svg version="1.1" id="Layer_1" xmlns="http://www.w3.org/2000/svg" xmlns:xlink="http://www.w3.org/1999/xlink" x="0px" y="0px"
	 viewBox="0 0 18 18" style="enable-background:new 0 0 18 18;" xml:space="preserve">
<polygon id="XMLID_38_" points="9.9,9.8 9.9,10.7 8.1,8.6 7.7,8.9 9.5,11.1 8.6,10.9 9.1,11.6 10.4,11.8 10.4,10.5 "/>
<polygon id="XMLID_335_" points="10.5,8.8 8.4,6.3 9.4,6.5 8.8,5.8 7.5,5.6 7.5,6.9 8,7.6 8,6.7 10.1,9.2 "/>
<path id="_x3C_Path_x3E__4_" d="M4.1,8.4C4.3,8.8,4.6,9,4.8,10C4,10,3,10,2.1,10c0.2-1,0.5-1.1,0.7-1.6c-0.7,0-1.5-0.1-1.9-0.1
	C0.2,8.2,0,8,0,7.3C0,6.2,0,5,0,3.8C0,3.2,0.2,3,0.8,3c1.8,0,3.5,0,5.3,0c0.6,0,0.8,0.2,0.8,0.8c0,1.2,0,2.4,0,3.6
	c0,0.6-0.2,0.9-0.8,0.9C5.4,8.4,4.8,8.4,4.1,8.4z M5.9,4c-2,0-3,0-5.1,0c0,2,0,1,0,3c2,0,3,0,5.1,0C5.9,5,5.9,6,5.9,4z"/>
<path id="_x3C_Path_x3E__3_" d="M15.3,13.6c0.1,0.2,0.5,0.4,0.7,1.4c-0.8,0-1.8,0-2.7,0c0.2-1,0.5-1.1,0.7-1.4c-0.7,0-1.5,0-1.9-0.1
	c-0.7-0.1-0.8-0.2-0.8-0.9c0-1.2,0-2.3,0-3.5c0-0.6,0.2-0.8,0.8-0.8c1.8,0,3.5,0,5.3,0c0.6,0,0.8,0.2,0.8,0.8c0,1.2,0,2.4,0,3.6
	c0,0.6-0.2,0.8-0.8,0.9C16.7,13.6,15.9,13.6,15.3,13.6z M17,9c-2,0-3,0-5,0c0,1,0,3.8,0,3.8c2.1,0,3,0,5,0C17,12.8,17,10,17,9z"/>
</svg>
