<?xml version="1.0" encoding="utf-8"?>
<!-- Generator: Adobe Illustrator 19.0.0, SVG Export Plug-In . SVG Version: 6.00 Build 0)  -->
<svg version="1.1" id="Layer_1" xmlns="http://www.w3.org/2000/svg" xmlns:xlink="http://www.w3.org/1999/xlink" x="0px" y="0px"
	 viewBox="0 0 18 18" style="enable-background:new 0 0 18 18;" xml:space="preserve">
<path id="XMLID_431_" d="M17.5,11.3c-0.6,3.5-4,6.2-7.7,6.5c-4,0.3-7.6-2.1-9-5.8c-1.4-3.7-0.2-7.8,3-10.2c3.7-2.7,8.5-2.4,11.6,1
	c1-1.2,1.9-2.2,2.5-3.1c0,1.1,0,2.4,0,7.9c-2.4,0-4.9,0-7.6,0c1.3-1.1,2.4-2.3,3.5-3.4c-1.1-1.4-2.5-1.9-4-2C6.4,2,3.4,4.2,2.6,7.4
	c-0.8,3.1,0.7,6.4,3.7,7.7c3,1.4,6.2,0.6,8.2-2c0.5-0.7,1-1.7,1-1.7S16.7,11.4,17.5,11.3z"/>
</svg>
