<?xml version="1.0" encoding="utf-8"?>
<!-- Generator: Adobe Illustrator 19.0.0, SVG Export Plug-In . SVG Version: 6.00 Build 0)  -->
<svg version="1.1" id="Layer_1" xmlns="http://www.w3.org/2000/svg" xmlns:xlink="http://www.w3.org/1999/xlink" x="0px" y="0px"
	 viewBox="0 0 18 18" style="enable-background:new 0 0 18 18;" xml:space="preserve">
<g id="XMLID_1_">
	<path id="XMLID_557_" d="M4.2,0c3.2,0,6.4,0,9.6,0c0.7,0.2,1,0.6,1.3,1.2c0.5,1.1,0.9,2.3,1.3,3.5c0,0,0,0,0,0c-5,0-9.9,0-14.9,0
		C2,3.5,2.4,2.4,2.9,1.2C3.1,0.6,3.5,0.2,4.2,0z"/>
	<path id="_x3C_Path_x3E__13_" d="M16.5,11.1c0,0.6,0,1.3,0,1.9c-0.1,0.3-0.4,0.5-0.7,0.5c-4.5,0-9.1,0-13.6,0
		c-0.5,0-0.7-0.2-0.7-0.7c0-0.5,0-0.9,0-1.4c0-0.6,0.2-0.8,0.8-0.8c4.5,0,9,0,13.5,0C16.1,10.7,16.4,10.8,16.5,11.1z M15.4,12.1
		c0-0.5-0.4-0.9-0.9-0.9c-0.5,0-0.9,0.4-0.9,0.8c0,0.5,0.4,0.9,0.8,0.9C15,13,15.4,12.6,15.4,12.1z"/>
	<path id="_x3C_Path_x3E__14_" d="M16.5,15.6c0,0.6,0,1.3,0,1.9c-0.1,0.4-0.4,0.5-0.8,0.5c-0.2,0-0.4,0-0.5,0c-4.3,0-8.6,0-12.8,0
		c-0.7,0-0.9-0.2-0.9-0.8c0-0.4,0-0.8,0-1.2c0-0.6,0.2-0.8,0.8-0.8c4.5,0,9,0,13.5,0C16.1,15.1,16.4,15.2,16.5,15.6z M15.4,16.5
		c0-0.5-0.4-0.9-0.9-0.9c-0.5,0-0.8,0.4-0.9,0.9c0,0.5,0.4,0.9,0.9,0.9C15,17.4,15.4,17,15.4,16.5z"/>
	<path id="_x3C_Path_x3E__15_" d="M16.5,6.7c0,0.6,0,1.3,0,1.9c-0.1,0.3-0.4,0.5-0.7,0.5c-4.5,0-9.1,0-13.6,0
		c-0.5,0-0.7-0.2-0.7-0.7c0-0.5,0-0.9,0-1.4c0-0.6,0.2-0.8,0.8-0.8c4.5,0,9,0,13.5,0C16.1,6.2,16.4,6.3,16.5,6.7z M15.4,7.6
		c0-0.5-0.4-0.9-0.9-0.9c-0.5,0-0.9,0.4-0.9,0.9c0,0.5,0.4,0.9,0.9,0.9C15,8.5,15.4,8.1,15.4,7.6z"/>
</g>
</svg>
