<?xml version="1.0" encoding="utf-8"?>
<!-- Generator: Adobe Illustrator 19.0.0, SVG Export Plug-In . SVG Version: 6.00 Build 0)  -->
<svg version="1.1" id="Layer_1" xmlns="http://www.w3.org/2000/svg" xmlns:xlink="http://www.w3.org/1999/xlink" x="0px" y="0px"
	 viewBox="0 0 18 18" style="enable-background:new 0 0 18 18;" xml:space="preserve">
<path id="_x3C_Path_x3E__9_" d="M0,9c0-5,4-9,9-9c5,0,9,4.1,9,9c0,4.9-4.1,9-9,9C4,18,0,14,0,9z M16.2,9c0-4-3.2-7.2-7.2-7.2
	C5,1.8,1.8,5,1.8,9c0,4,3.2,7.2,7.2,7.2C13,16.2,16.2,13,16.2,9z"/>
<path id="XMLID_521_" d="M8.1,4.5c0.5,0,0.9,0,1.3,0c0,1.4,0,2.8,0,4.2c0,0.4,0.1,0.6,0.4,0.8c1.2,0.7,2.4,1.4,3.6,2.1
	c-0.2,0.4-0.4,0.7-0.7,1.1c-1.5-0.9-3-1.8-4.5-2.7C8.2,10,8.1,9.8,8.1,9.7C8.1,8,8.1,6.3,8.1,4.5z"/>
</svg>
