<?xml version="1.0" encoding="utf-8"?>
<!-- Generator: Adobe Illustrator 19.0.0, SVG Export Plug-In . SVG Version: 6.00 Build 0)  -->
<svg version="1.1" id="Layer_1" xmlns="http://www.w3.org/2000/svg" xmlns:xlink="http://www.w3.org/1999/xlink" x="0px" y="0px"
	 viewBox="0 0 18 18" style="enable-background:new 0 0 18 18;" xml:space="preserve">
<path id="_x3C_Path_x3E__19_" d="M0,17.9c0-1,0-1.9,0-2.7c-0.1-1.3,0.5-2.2,1.5-2.9c3.8-2.7,11.1-2.7,14.9,0c1,0.7,1.6,1.6,1.5,2.9
	c-0.1,0.9,0,1.8,0,2.7C12,17.9,6.1,17.9,0,17.9z M2.3,15.8c4.4,0,8.9,0,13.3,0c0.2-1.4,0.2-1.5-0.9-2.1c-3.8-1.9-7.7-1.9-11.6,0
	C2.3,14.1,1.9,14.7,2.3,15.8z"/>
<path id="_x3C_Path_x3E__18_" d="M9,9C6.6,9,4.5,7,4.5,4.6c0-2.5,2-4.6,4.5-4.5c2.5,0,4.4,2.1,4.4,4.5C13.5,7,11.5,9,9,9z M11.3,4.6
	c0-1.3-0.9-2.3-2.2-2.4c-1.4,0-2.4,1-2.4,2.3c0,1.3,1,2.3,2.3,2.3C10.3,6.9,11.3,5.9,11.3,4.6z"/>
</svg>
