<?xml version="1.0" encoding="utf-8"?>
<!-- Generator: Adobe Illustrator 19.0.0, SVG Export Plug-In . SVG Version: 6.00 Build 0)  -->
<svg version="1.1" id="Layer_1" xmlns="http://www.w3.org/2000/svg" xmlns:xlink="http://www.w3.org/1999/xlink" x="0px" y="0px"
	 viewBox="0 0 18 18" style="enable-background:new 0 0 18 18;" xml:space="preserve">
<path id="_x3C_Path_x3E__21_" d="M9,1.8c2.3,0,4.6,0,6.8,0c1.5,0,2.1,0.7,2.2,2.1c0,3.4,0,6.8,0,10.2c0,1.4-0.7,2.1-2.1,2.1
	c-4.6,0-9.2,0-13.8,0C0.7,16.2,0,15.5,0,14c0-3.4,0-6.7,0-10.1c0-1.5,0.7-2.1,2.1-2.1C4.4,1.8,6.7,1.8,9,1.8z M11.6,9.9
	c0-1.2,0-2.4,0-3.5c-3.3,0-6.5,0-9.7,0c0,1.2,0,2.4,0,3.5C5.2,9.9,8.3,9.9,11.6,9.9z M11.6,10.9c-3.3,0-6.6,0-9.8,0
	c0,1.2,0,2.4,0,3.5c3.3,0,6.5,0,9.8,0C11.6,13.2,11.6,12.1,11.6,10.9z M16.1,14.3c0-2.7,0-5.4,0-8c-1.2,0-2.3,0-3.5,0
	c0,2.7,0,5.3,0,8C13.8,14.3,14.9,14.3,16.1,14.3z"/>
</svg>
